<svg width="2188" height="1161" viewBox="0 0 2188 1161" fill="none" xmlns="http://www.w3.org/2000/svg">
<mask id="mask0_149_158" style="mask-type:alpha" maskUnits="userSpaceOnUse" x="0" y="0" width="2188" height="1161">
<rect width="2188" height="1161" fill="white"/>
</mask>
<g mask="url(#mask0_149_158)">
<path d="M2188 0H0V1161H2188V0Z" fill="#10639F"/>
<g filter="url(#filter0_d_149_158)">
<path d="M186.833 467.452C120.094 467.452 57.9545 466.75 0.0253906 465.502V1160.73H1532.69V727.106C915.43 747.845 834.241 467.452 186.833 467.452Z" fill="#1387AE"/>
</g>
<path d="M508.004 678.767L281.693 731.264C269.738 734.045 257.783 726.586 255.003 714.631L202.505 488.321C199.724 476.366 207.183 464.411 219.138 461.63L445.449 409.133C457.404 406.352 469.359 413.811 472.139 425.766L524.637 652.076C527.418 664.031 519.985 675.986 508.004 678.767Z" fill="#088837"/>
<path d="M289.438 566.599C267.581 533.307 243.827 498.846 231.69 458.719L219.138 461.63C207.183 464.411 199.724 476.366 202.505 488.321L255.002 714.631C257.783 726.586 269.738 734.045 281.693 731.264L498.31 681.028C415.873 670.243 337.127 634.508 289.438 566.599Z" fill="#006C33"/>
<path d="M231.535 486.19L291.336 518.468L299.652 554.306L321.379 549.264" stroke="#62B668" stroke-width="1.8681" stroke-miterlimit="10" stroke-linecap="round" stroke-linejoin="round"/>
<path d="M329.228 555.528C333.691 555.528 337.31 551.909 337.31 547.445C337.31 542.981 333.691 539.363 329.228 539.363C324.764 539.363 321.145 542.981 321.145 547.445C321.145 551.909 324.764 555.528 329.228 555.528Z" stroke="#62B668" stroke-width="1.8681" stroke-miterlimit="10" stroke-linecap="round" stroke-linejoin="round"/>
<path d="M282.006 703.742L321.483 648.438L313.167 612.599L334.893 607.557" stroke="#62B668" stroke-width="1.8681" stroke-miterlimit="10" stroke-linecap="round" stroke-linejoin="round"/>
<path d="M342.768 613.821C347.232 613.821 350.85 610.202 350.85 605.738C350.85 601.274 347.232 597.656 342.768 597.656C338.304 597.656 334.685 601.274 334.685 605.738C334.685 610.202 338.304 613.821 342.768 613.821Z" stroke="#62B668" stroke-width="1.8681" stroke-miterlimit="10" stroke-linecap="round" stroke-linejoin="round"/>
<path d="M392.277 532.814L414.004 527.772L405.687 491.933L445.164 436.655" stroke="#62B668" stroke-width="1.8681" stroke-miterlimit="10" stroke-linecap="round" stroke-linejoin="round"/>
<path d="M384.402 542.741C388.866 542.741 392.484 539.123 392.484 534.659C392.484 530.195 388.866 526.576 384.402 526.576C379.938 526.576 376.319 530.195 376.319 534.659C376.319 539.123 379.938 542.741 384.402 542.741Z" stroke="#62B668" stroke-width="1.8681" stroke-miterlimit="10" stroke-linecap="round" stroke-linejoin="round"/>
<path d="M405.79 591.106L427.517 586.065L435.833 621.929L495.633 654.181" stroke="#62B668" stroke-width="1.8681" stroke-miterlimit="10" stroke-linecap="round" stroke-linejoin="round"/>
<path d="M397.942 601.008C402.406 601.008 406.024 597.39 406.024 592.926C406.024 588.462 402.406 584.843 397.942 584.843C393.478 584.843 389.859 588.462 389.859 592.926C389.859 597.39 393.478 601.008 397.942 601.008Z" stroke="#62B668" stroke-width="1.8681" stroke-miterlimit="10" stroke-linecap="round" stroke-linejoin="round"/>
<path d="M484.821 661.328L294.869 705.405C284.837 707.744 274.805 701.481 272.466 691.449L228.389 501.497C226.05 491.465 232.314 481.434 242.345 479.095L432.298 435.018C442.329 432.679 452.361 438.942 454.7 448.974L498.777 638.926C501.116 648.958 494.853 658.989 484.821 661.328Z" stroke="white" stroke-width="1.8681" stroke-miterlimit="10" stroke-linecap="round" stroke-linejoin="round"/>
<path d="M287.541 582.634L249.26 591.522" stroke="white" stroke-width="1.8681" stroke-miterlimit="10" stroke-linecap="round" stroke-linejoin="round"/>
<path d="M297.729 589.651C302.193 589.651 305.811 586.033 305.811 581.569C305.811 577.105 302.193 573.486 297.729 573.486C293.265 573.486 289.646 577.105 289.646 581.569C289.646 586.033 293.265 589.651 297.729 589.651Z" stroke="white" stroke-width="1.8681" stroke-miterlimit="10" stroke-linecap="round" stroke-linejoin="round"/>
<path d="M276.86 564.104C281.324 564.104 284.943 560.485 284.943 556.022C284.943 551.558 281.324 547.939 276.86 547.939C272.396 547.939 268.778 551.558 268.778 556.022C268.778 560.485 272.396 564.104 276.86 564.104Z" stroke="white" stroke-width="1.8681" stroke-miterlimit="10" stroke-linecap="round" stroke-linejoin="round"/>
<path d="M241.229 556.827L249.962 562.259L266.958 558.335" stroke="white" stroke-width="1.8681" stroke-miterlimit="10" stroke-linecap="round" stroke-linejoin="round"/>
<path d="M289.647 619.278C294.111 619.278 297.729 615.66 297.729 611.196C297.729 606.732 294.111 603.113 289.647 603.113C285.183 603.113 281.564 606.732 281.564 611.196C281.564 615.66 285.183 619.278 289.647 619.278Z" stroke="white" stroke-width="1.8681" stroke-miterlimit="10" stroke-linecap="round" stroke-linejoin="round"/>
<path d="M257.316 626.165L262.748 617.433L279.745 613.483" stroke="white" stroke-width="1.8681" stroke-miterlimit="10" stroke-linecap="round" stroke-linejoin="round"/>
<path d="M475.622 538.999L437.341 547.887" stroke="white" stroke-width="1.8681" stroke-miterlimit="10" stroke-linecap="round" stroke-linejoin="round"/>
<path d="M427.154 557.009C431.618 557.009 435.236 553.391 435.236 548.927C435.236 544.463 431.618 540.844 427.154 540.844C422.69 540.844 419.071 544.463 419.071 548.927C419.071 553.391 422.69 557.009 427.154 557.009Z" stroke="white" stroke-width="1.8681" stroke-miterlimit="10" stroke-linecap="round" stroke-linejoin="round"/>
<path d="M448.022 582.556C452.486 582.556 456.105 578.938 456.105 574.474C456.105 570.01 452.486 566.391 448.022 566.391C443.558 566.391 439.94 570.01 439.94 574.474C439.94 578.938 443.558 582.556 448.022 582.556Z" stroke="white" stroke-width="1.8681" stroke-miterlimit="10" stroke-linecap="round" stroke-linejoin="round"/>
<path d="M457.925 572.161L474.922 568.21L483.654 573.668" stroke="white" stroke-width="1.8681" stroke-miterlimit="10" stroke-linecap="round" stroke-linejoin="round"/>
<path d="M435.21 527.382C439.674 527.382 443.293 523.763 443.293 519.299C443.293 514.836 439.674 511.217 435.21 511.217C430.747 511.217 427.128 514.836 427.128 519.299C427.128 523.763 430.747 527.382 435.21 527.382Z" stroke="white" stroke-width="1.8681" stroke-miterlimit="10" stroke-linecap="round" stroke-linejoin="round"/>
<path d="M445.112 516.986L462.109 513.062L467.566 504.304" stroke="white" stroke-width="1.8681" stroke-miterlimit="10" stroke-linecap="round" stroke-linejoin="round"/>
<path d="M345.053 490.374L337.334 457.03" stroke="white" stroke-width="1.8681" stroke-miterlimit="10" stroke-linecap="round" stroke-linejoin="round"/>
<path d="M346.119 508.618C350.583 508.618 354.201 504.999 354.201 500.535C354.201 496.072 350.583 492.453 346.119 492.453C341.655 492.453 338.036 496.072 338.036 500.535C338.036 504.999 341.655 508.618 346.119 508.618Z" stroke="white" stroke-width="1.8681" stroke-miterlimit="10" stroke-linecap="round" stroke-linejoin="round"/>
<path d="M371.666 487.749C376.13 487.749 379.748 484.13 379.748 479.666C379.748 475.202 376.13 471.584 371.666 471.584C367.202 471.584 363.583 475.202 363.583 479.666C363.583 484.13 367.202 487.749 371.666 487.749Z" stroke="white" stroke-width="1.8681" stroke-miterlimit="10" stroke-linecap="round" stroke-linejoin="round"/>
<path d="M369.379 469.765L365.428 452.742L367.066 450.117" stroke="white" stroke-width="1.8681" stroke-miterlimit="10" stroke-linecap="round" stroke-linejoin="round"/>
<path d="M316.491 500.561C320.955 500.561 324.574 496.943 324.574 492.479C324.574 488.015 320.955 484.396 316.491 484.396C312.028 484.396 308.409 488.015 308.409 492.479C308.409 496.943 312.028 500.561 316.491 500.561Z" stroke="white" stroke-width="1.8681" stroke-miterlimit="10" stroke-linecap="round" stroke-linejoin="round"/>
<path d="M307.603 463.917L310.228 465.554L314.178 482.577" stroke="white" stroke-width="1.8681" stroke-miterlimit="10" stroke-linecap="round" stroke-linejoin="round"/>
<path d="M389.831 683.341L379.799 640.147" stroke="white" stroke-width="1.8681" stroke-miterlimit="10" stroke-linecap="round" stroke-linejoin="round"/>
<path d="M378.761 638.042C383.224 638.042 386.843 634.424 386.843 629.96C386.843 625.496 383.224 621.877 378.761 621.877C374.297 621.877 370.678 625.496 370.678 629.96C370.678 634.424 374.297 638.042 378.761 638.042Z" stroke="white" stroke-width="1.8681" stroke-miterlimit="10" stroke-linecap="round" stroke-linejoin="round"/>
<path d="M353.213 658.911C357.677 658.911 361.296 655.293 361.296 650.829C361.296 646.365 357.677 642.746 353.213 642.746C348.749 642.746 345.131 646.365 345.131 650.829C345.131 655.293 348.749 658.911 353.213 658.911Z" stroke="white" stroke-width="1.8681" stroke-miterlimit="10" stroke-linecap="round" stroke-linejoin="round"/>
<path d="M355.5 660.731L359.45 677.727L350.224 692.541" stroke="white" stroke-width="1.8681" stroke-miterlimit="10" stroke-linecap="round" stroke-linejoin="round"/>
<path d="M408.387 646.125C412.851 646.125 416.47 642.506 416.47 638.042C416.47 633.578 412.851 629.96 408.387 629.96C403.924 629.96 400.305 633.578 400.305 638.042C400.305 642.506 403.924 646.125 408.387 646.125Z" stroke="white" stroke-width="1.8681" stroke-miterlimit="10" stroke-linecap="round" stroke-linejoin="round"/>
<path d="M410.7 647.944L414.651 664.941L429.438 674.167" stroke="white" stroke-width="1.8681" stroke-miterlimit="10" stroke-linecap="round" stroke-linejoin="round"/>
<g filter="url(#filter1_d_149_158)">
<path d="M1532.69 467.451C1126.67 611.196 490.955 671.802 83.1123 585.415C55.1483 579.489 27.4182 574.136 0 569.25V1160.76H2187.97V579.541C2188 579.541 1937.39 324.175 1532.69 467.451Z" fill="#359CD1"/>
</g>
<path d="M1904.62 648.931C1904.41 641.213 1903.66 633.572 1902.54 626.113L1862.77 619.538L1849.31 581.932L1875.8 551.551C1867.76 538.193 1858.2 525.874 1847.39 514.803L1811.34 532.891L1778.29 510.411L1781.85 470.206C1768.15 464.437 1753.65 460.071 1738.6 457.472L1719.91 493.258L1679.94 494.194L1659.41 459.421C1644.05 462.929 1629.37 468.127 1615.6 474.91L1621.49 514.829L1589.74 539.129L1552.73 523.145C1542.57 534.762 1533.7 547.601 1526.43 561.401L1554.6 590.197L1543.24 628.504L1503.9 637.366C1503.19 645.293 1502.88 653.401 1503.14 661.614C1503.43 669.125 1504.1 676.48 1505.12 683.756L1544.88 690.462L1558.24 728.119L1531.57 758.422C1539.63 771.807 1549.14 784.229 1559.95 795.327L1596.08 777.342L1629.06 799.901L1625.31 840.105C1639.45 846.083 1654.37 850.605 1669.89 853.256L1688.52 817.391L1728.49 816.274L1749.1 850.995C1764.46 847.434 1779.12 842.132 1792.89 835.323L1786.89 795.43L1818.54 771.001L1855.6 786.88C1865.76 775.159 1874.6 762.347 1881.82 748.521L1853.5 719.829L1864.7 681.417L1904.07 672.503C1904.64 664.759 1904.9 656.884 1904.62 648.931ZM1763.26 722.896C1725.97 755.642 1669.11 752.159 1636.18 714.683C1603.46 677.233 1607.1 620.448 1644.49 587.702C1681.74 554.774 1738.65 558.438 1771.45 595.784C1804.43 633.208 1800.64 690.124 1763.26 722.896Z" fill="#5E5481"/>
<path d="M1802.56 567.898C1754.56 513.244 1671.21 507.786 1616.53 555.787C1561.93 603.841 1556.5 687.057 1604.63 741.79C1652.63 796.418 1735.92 801.798 1790.53 753.822C1845.21 705.821 1850.56 622.527 1802.56 567.898ZM1782 744.128C1732.73 787.426 1657.59 782.566 1614.32 733.291C1570.92 683.912 1575.81 608.857 1625.05 565.507C1674.38 522.21 1749.57 527.122 1792.86 576.423C1836.16 625.697 1831.33 700.831 1782 744.128Z" fill="#D9DADB"/>
<path d="M1627.42 798.575L1628.75 799.485L1625.68 839.352L1625 839.689C1639.14 845.667 1654.06 850.189 1669.57 852.84L1669.21 852.19L1688.21 816.975L1728.18 815.858L1749.18 849.903L1748.79 850.579C1764.15 847.018 1778.8 841.717 1792.58 834.907L1791.93 834.622L1786.58 795.015L1818.23 770.585L1855.24 785.789L1855.26 786.464C1865.43 774.743 1874.26 761.931 1881.49 748.105L1880.78 748.287L1853.16 719.413L1864.36 681.002L1903.21 671.594L1903.73 672.087C1904.36 664.291 1904.64 656.416 1904.36 648.464C1904.15 640.745 1903.4 633.104 1902.28 625.645L1901.86 626.217L1890.71 624.19C1815.99 731.888 1710.82 778.538 1627.42 798.575Z" fill="#484B4C"/>
<path d="M1790.53 753.822C1809.29 737.345 1822.23 716.736 1829.22 694.542C1821.92 701.195 1814.49 707.51 1806.95 713.436C1800.58 724.689 1792.27 735.084 1782 744.102C1759.57 763.802 1731.79 773.496 1704.09 773.6C1695.07 777.368 1686.13 780.799 1677.29 783.891C1716.28 791.818 1758.38 782.072 1790.53 753.822Z" fill="#A1A3A3"/>
<path d="M783.149 644.072C806.331 669.463 799.028 665.668 797.624 698.102L904.464 823.057C936.249 826.591 934.482 819.132 955.584 845.771C963.771 853.464 957.768 875.996 957.923 885.612L926.867 849.305L900.956 871.448L932.013 907.78C900.228 904.246 901.996 911.705 880.893 885.066C872.706 877.373 878.71 854.841 878.528 845.225L771.688 720.271C739.903 716.736 741.67 724.195 720.567 697.557C712.381 689.864 718.384 667.332 718.228 657.716L749.285 694.048L775.196 671.906L744.139 635.573C753.651 637.263 776.781 634.716 783.149 644.072Z" fill="#C4C6CA"/>
<path opacity="0.25" d="M718.229 657.716C718.281 658.339 719.554 678.793 720.62 684.926C721.711 691.137 722.751 692.359 732.419 702.91C742.113 713.436 748.402 712.396 758.616 713.124C768.855 713.852 774.443 714.449 774.443 714.449L884.506 842.86C884.609 844.419 876.917 876.178 879.334 883.013C873.46 875.944 878.658 853.49 878.502 845.225L771.662 720.271C739.878 716.736 741.645 724.195 720.542 697.557C712.407 689.838 718.411 667.358 718.229 657.716Z" fill="white"/>
<path opacity="0.2" d="M957.923 885.638C957.871 885.014 956.598 864.561 955.532 858.427C954.441 852.216 953.401 850.995 943.733 840.443C934.04 829.918 927.75 830.957 917.537 830.23C907.297 829.502 901.71 828.904 901.71 828.904L791.647 700.493C791.543 698.934 799.236 667.176 796.819 660.341C802.692 667.41 797.494 689.864 797.65 698.128L904.49 823.083C936.275 826.617 934.507 819.158 955.61 845.797C963.771 853.516 957.767 876.022 957.923 885.638Z" fill="#020203"/>
<g filter="url(#filter2_d_149_158)">
<path d="M1579.7 663.173C1223.71 678.715 1033.63 772.041 587.763 765.127C402.774 762.243 202.193 719.699 0.0253906 681.703V1160.76H2188V728.743C2188 728.743 1932.84 647.736 1579.7 663.173Z" fill="#6CC5D3"/>
</g>
<path d="M2027.17 706.188L1923.51 778.572L1938.16 799.561L2041.83 727.176L2027.17 706.188Z" fill="#D1D9E3"/>
<path d="M1903.66 905.935L1964.39 781.241L1949.73 760.242L1834.27 840.859L1879.85 906.169C1886.22 915.239 1899.03 915.109 1903.66 905.935Z" fill="#D1D9E3"/>
<path d="M1901.27 895.462L1948.77 797.951L1931.41 773.08L1839.33 837.377L1880.03 895.669C1885.67 903.752 1897.11 903.648 1901.27 895.462Z" fill="#E6B608"/>
<path d="M2026.87 715.567L2037.24 730.406L2039.66 728.717L2029.29 713.878C2029 713.462 2028.4 713.358 2027.99 713.644L2027.08 714.267C2026.69 714.553 2026.58 715.125 2026.87 715.567Z" fill="#808F93"/>
<path d="M2027.18 724.299L2033.34 733.109L2034.77 732.096L2028.61 723.286C2028.43 723.026 2028.09 722.974 2027.86 723.156L2027.34 723.519C2027.08 723.727 2027 724.065 2027.18 724.299Z" fill="#808F93"/>
<path d="M2022.79 727.392L2028.95 736.202L2030.38 735.188L2024.22 726.378C2024.04 726.118 2023.7 726.066 2023.46 726.248L2022.94 726.612C2022.66 726.794 2022.61 727.132 2022.79 727.392Z" fill="#808F93"/>
<path d="M2018.4 730.458L2024.56 739.269L2025.99 738.255L2019.83 729.445C2019.64 729.185 2019.31 729.133 2019.07 729.315L2018.55 729.679C2018.27 729.861 2018.21 730.198 2018.4 730.458Z" fill="#808F93"/>
<path d="M2009.27 727.834L2019.64 742.673L2022.06 740.984L2011.69 726.144C2011.41 725.728 2010.81 725.624 2010.39 725.91L2009.48 726.534C2009.09 726.846 2008.99 727.418 2009.27 727.834Z" fill="#808F93"/>
<path d="M2009.59 736.592L2015.75 745.402L2017.18 744.388L2011.02 735.578C2010.83 735.318 2010.5 735.266 2010.26 735.448L2009.74 735.812C2009.48 735.994 2009.43 736.332 2009.59 736.592Z" fill="#808F93"/>
<path d="M2005.19 739.658L2011.35 748.469L2012.78 747.455L2006.62 738.645C2006.44 738.385 2006.1 738.333 2005.87 738.515L2005.35 738.879C2005.09 739.061 2005.01 739.399 2005.19 739.658Z" fill="#808F93"/>
<path d="M2000.8 742.725L2006.96 751.535L2008.39 750.522L2002.23 741.712C2002.05 741.452 2001.71 741.4 2001.48 741.582L2000.96 741.945C2000.7 742.127 2000.62 742.491 2000.8 742.725Z" fill="#808F93"/>
<path d="M1991.71 740.126L2002.08 754.966L2004.49 753.277L1994.12 738.437C1993.84 738.021 1993.24 737.917 1992.82 738.203L1991.91 738.827C1991.5 739.113 1991.39 739.684 1991.71 740.126Z" fill="#808F93"/>
<path d="M1992.02 748.859L1998.18 757.669L1999.61 756.655L1993.45 747.845C1993.27 747.585 1992.93 747.533 1992.69 747.715L1992.17 748.079C1991.89 748.287 1991.84 748.625 1992.02 748.859Z" fill="#808F93"/>
<path d="M1987.6 751.951L1993.76 760.761L1995.19 759.748L1989.03 750.938C1988.85 750.678 1988.51 750.626 1988.28 750.808L1987.76 751.171C1987.5 751.353 1987.44 751.691 1987.6 751.951Z" fill="#808F93"/>
<path d="M1983.21 755.018L1989.37 763.828L1990.8 762.814L1984.64 754.004C1984.46 753.744 1984.12 753.692 1983.88 753.874L1983.36 754.238C1983.1 754.42 1983.05 754.758 1983.21 755.018Z" fill="#808F93"/>
<path d="M1974.11 752.393L1984.48 767.233L1986.9 765.543L1976.53 750.704C1976.24 750.288 1975.65 750.184 1975.23 750.47L1974.32 751.093C1973.9 751.405 1973.83 751.977 1974.11 752.393Z" fill="#808F93"/>
<path d="M1974.42 761.151L1980.58 769.961L1982.01 768.948L1975.85 760.138C1975.67 759.878 1975.33 759.826 1975.1 760.008L1974.58 760.372C1974.29 760.553 1974.24 760.891 1974.42 761.151Z" fill="#808F93"/>
<path d="M1970.03 764.218L1976.19 773.028L1977.62 772.015L1971.46 763.204C1971.28 762.944 1970.94 762.892 1970.71 763.074L1970.19 763.438C1969.9 763.62 1969.85 763.984 1970.03 764.218Z" fill="#808F93"/>
<path d="M1965.61 767.285L1971.77 776.095L1973.2 775.081L1967.04 766.271C1966.86 766.011 1966.52 765.959 1966.29 766.141L1965.77 766.505C1965.51 766.687 1965.46 767.051 1965.61 767.285Z" fill="#808F93"/>
<path d="M1956.52 764.686L1966.89 779.525L1969.33 777.836L1958.96 762.997C1958.67 762.581 1958.08 762.477 1957.66 762.763L1956.75 763.386C1956.34 763.672 1956.23 764.244 1956.52 764.686Z" fill="#808F93"/>
<path d="M2056.21 721.986L2039.29 697.739L2027.18 706.185L2044.1 730.433C2045.45 732.382 2048.15 732.875 2050.1 731.498L2055.15 727.99C2057.09 726.612 2057.56 723.935 2056.21 721.986Z" fill="#D1D9E3"/>
<path d="M2022.35 673.491C2021 671.542 2018.29 671.048 2016.34 672.425L2011.3 675.934C2009.35 677.285 2008.86 679.988 2010.24 681.937L2027.15 706.185L2039.27 697.738L2022.35 673.491Z" fill="#E4F3F9"/>
<path d="M2012.51 685.188L1908.85 757.573L1923.5 778.561L2027.17 706.177L2012.51 685.188Z" fill="#E4F3F9"/>
<path d="M1935.1 739.243L1797.13 753.329C1786.91 754.524 1782.37 766.505 1788.71 775.575L1834.29 840.885L1949.76 760.268L1935.1 739.243Z" fill="#E4F3F9"/>
<path d="M1914 748.183L1806.09 759.202C1796.97 760.268 1792.92 770.975 1798.58 779.058L1839.28 837.351L1931.36 773.054L1914 748.183Z" fill="#FECA06"/>
<path d="M914.833 671.464L1308.56 727.314L1703.88 683.991L1483.81 857.57L1124.43 863.625L914.833 671.464Z" fill="#8AA5C3"/>
<path d="M1155 842.522L1506.23 848.11L1320.96 548.303C1316.88 541.702 1307.13 542.091 1303.6 549.03L1155 842.522Z" fill="#DFEBE9"/>
<path d="M904.333 687.031L1127.58 959.784L1307.52 794.001L914.833 671.464C905.555 668.553 898.174 679.494 904.333 687.031Z" fill="#FDFDFD"/>
<path d="M1713.89 699.896L1482.09 965.397L1307.5 793.975L1703.88 684.016C1713.26 681.391 1720.28 692.567 1713.89 699.896Z" fill="#FDFDFD"/>
<path d="M1127.55 959.758L1482.09 965.398L1307.5 793.975L1127.55 959.758Z" fill="#EAF5F4"/>
<path d="M1142.23 370.045L1085.97 489.412L1013.95 504.953L1016.01 515.765L1129.94 523.457L1159.65 382.728L1142.23 370.045Z" fill="#E84427"/>
<path d="M1448.15 296.653C1448.07 296.523 1447.99 296.367 1447.94 296.237C1447.76 295.899 1447.6 295.535 1447.63 295.171C1447.66 294.808 1447.89 294.47 1448.12 294.184C1451.11 290.389 1455.92 287.297 1456.05 282.489C1447.5 291.117 1438.12 298.212 1429.05 306.295C1428.09 307.152 1428.24 308.972 1429.41 309.595C1431.72 310.791 1433.21 311.778 1435.57 312.896C1436.45 313.312 1437.26 313.234 1438.01 312.61C1438.98 311.83 1450.98 302.266 1450.28 300.889C1449.55 299.46 1448.85 298.056 1448.15 296.653Z" fill="#FAC081"/>
<path d="M1209.47 362.041L1326.78 362.846L1434.43 301.305L1441.39 309.725L1337.57 397.957L1227.09 427.819L1209.47 362.041Z" fill="#E84427"/>
<path d="M1216.23 365.731C1210.25 358.428 1202.14 352.971 1193.23 350.008C1186.78 347.825 1179.87 346.967 1173.08 347.695C1170.72 347.955 1168.35 348.397 1166.04 349.046C1152.71 352.737 1141.04 362.535 1135.84 375.373C1132.85 382.754 1131.94 390.836 1131.09 398.763C1125.81 447.284 1120.02 494.896 1123.39 543.833C1123.52 545.73 1124.8 547.263 1126.77 547.341C1159.73 548.511 1191.98 554.618 1223.11 565.507C1224.54 566.001 1225.79 565.481 1226.57 564.494C1226.8 564.754 1227.27 564.676 1227.3 564.26C1227.35 563.74 1227.37 563.246 1227.4 562.727C1227.48 562.363 1227.5 561.999 1227.48 561.635C1230.18 525.64 1229.4 489.1 1229.97 453.028C1230.44 422.881 1237.15 391.2 1216.23 365.731Z" fill="#ED6B33"/>
<path d="M1144.08 517.792L1041.09 505.395L997.842 510.567L917.068 655.377L928.841 655.559L1006.63 561.687L1139.22 593.211L1210.01 763.36L1240.86 771.677L1227.56 554.41L1144.08 517.792Z" fill="#221F26"/>
<path d="M917.068 655.377L890.429 664.759L877.617 670.424L889.26 677.493L922.811 671.594L928.841 655.559L917.068 655.377Z" fill="black"/>
<path d="M1013.95 504.953L997.842 510.567L1000.49 517.48L1008.45 517.584L1013.95 504.953Z" fill="#FAC081"/>
<path d="M1193.23 350.008L1171 429.638L1166.07 349.072L1166.04 349.046C1168.35 348.423 1170.72 347.955 1173.08 347.695C1179.87 346.967 1186.75 347.825 1193.23 350.008Z" fill="#E84427"/>
<path d="M1143.04 307.178L1128.54 317.73C1126.25 319.393 1127.11 323.006 1129.92 323.447L1141.04 325.215L1143.04 307.178Z" fill="#E84427"/>
<path d="M1176.26 358.714C1171.32 358.532 1171.29 347.357 1171.91 339.093C1167.44 341.717 1159.39 342.107 1156.4 341.38C1155.54 341.172 1154.61 340.86 1153.64 340.418C1148.45 338.651 1143.33 334.83 1140.99 328.671C1138.31 321.628 1140.05 312.298 1143.04 305.801C1149.59 291.533 1166.02 286.855 1175.19 299.771C1179.61 306.009 1180.65 314.637 1181.04 322.694C1181.45 330.906 1181.22 339.274 1180.83 347.201C1180.83 350.892 1181.92 356.193 1178.65 358.038C1178.07 358.324 1177.22 358.714 1176.26 358.714Z" fill="#FAC081"/>
<path d="M1183.09 295.275C1178.93 286.907 1170.98 283.814 1161.99 284.438C1158.84 284.646 1155.62 285.426 1152.45 285.971C1152.99 285.244 1153.44 284.464 1153.75 283.684C1155.36 279.656 1153.96 274.978 1150.47 272.353C1149.98 271.989 1149.49 271.704 1148.99 271.47C1144.99 267.805 1138.68 267.077 1133.61 268.767C1119.05 273.627 1116.71 292.157 1127.01 302.292C1133.32 308.504 1141.92 309.257 1150.37 308.868C1155.72 308.634 1161.08 308.166 1166.43 307.828C1170.54 307.568 1172.07 307.932 1173.37 312.22C1173.81 313.701 1173.5 315.209 1174.15 316.69C1175.37 319.497 1177.79 320.407 1180.1 320.017C1181.27 320.64 1182.73 320.381 1184.29 318.483C1189.09 312.662 1186.03 301.175 1183.09 295.275Z" fill="#0A0116"/>
<g filter="url(#filter3_d_149_158)">
<path d="M1485.24 898.19C774.025 937.46 577.393 675.258 118.846 653.376C78.8495 651.478 39.1386 651.582 0.0253906 653.298V1160.73H2188V647.632C2188 647.632 1985.81 870.538 1485.24 898.19Z" fill="#99D3DA"/>
</g>
<path d="M394.692 804.397C394.692 804.397 389.261 792.936 403.685 784.853C418.082 776.771 426.139 775.003 445.708 746.832C465.278 718.66 479.884 709.511 507.536 708.446C535.188 707.38 559.903 719.699 576.198 749.352C592.493 779.006 582.202 820.38 553.562 840.729C524.896 861.078 502.078 852.892 483.808 851.437C465.538 849.981 451.218 853.23 436.846 859.779C422.474 866.328 414.236 847.226 414.236 847.226L394.692 804.397Z" fill="#F49D1A"/>
<path d="M408.883 860.169L383.595 804.735C382.946 803.279 383.569 801.564 385.025 800.914L388.507 799.329C389.963 798.679 391.678 799.303 392.328 800.758L417.615 856.192C418.264 857.648 417.641 859.363 416.185 860.013L412.703 861.598C411.247 862.248 409.532 861.598 408.883 860.169Z" fill="#565553"/>
<path d="M400.151 864.145L374.863 808.711C374.214 807.256 374.837 805.54 376.293 804.891L379.775 803.305C381.231 802.655 382.946 803.279 383.596 804.735L408.883 860.169C409.533 861.624 408.909 863.339 407.453 863.989L403.971 865.574C402.516 866.224 400.8 865.6 400.151 864.145Z" fill="#565553"/>
<path d="M391.417 868.121L366.13 812.687C365.481 811.232 366.104 809.516 367.56 808.867L371.042 807.281C372.498 806.632 374.213 807.255 374.863 808.711L400.15 864.145C400.799 865.6 400.176 867.316 398.72 867.965L395.238 869.551C393.782 870.226 392.067 869.577 391.417 868.121Z" fill="#565553"/>
<path d="M382.685 872.098L357.398 816.663C356.749 815.208 357.372 813.493 358.828 812.843L362.31 811.258C363.766 810.608 365.481 811.232 366.131 812.687L391.418 868.121C392.067 869.577 391.444 871.292 389.988 871.942L386.506 873.527C385.05 874.203 383.335 873.553 382.685 872.098Z" fill="#565553"/>
<path d="M370.367 868.251L352.486 829.06C351.966 827.917 352.018 826.591 352.616 825.474L355.839 819.548C356.489 818.379 358.178 818.431 358.75 819.652L381.542 869.629C382.088 870.85 381.022 872.176 379.723 871.89L373.173 870.512C371.926 870.252 370.886 869.395 370.367 868.251Z" fill="#565553"/>
<path d="M357.243 862.586L348.355 843.094C348.251 842.86 348.251 842.626 348.329 842.392L352.045 831.919C352.331 831.113 353.448 831.061 353.786 831.841L368.938 865.055C369.276 865.808 368.574 866.588 367.794 866.328L357.814 863.079C357.555 863.028 357.347 862.82 357.243 862.586Z" fill="#565553"/>
<path d="M528.119 733.967L529.652 723C529.938 720.999 531.757 719.517 533.758 719.725C537.345 720.089 542.777 721.362 546.571 725.495C547.299 726.3 547.61 727.392 547.481 728.457L546.233 738.541C545.921 741.062 543.244 742.569 540.905 741.53C537.007 739.789 533.447 738.749 530.978 738.177C529.08 737.735 527.833 735.89 528.119 733.967Z" fill="#F9D377"/>
<path d="M521.076 722.584C521.076 722.584 521.336 718.062 516.892 717.958C512.448 717.854 498.959 714.579 482.586 723.052C466.213 731.524 450.932 747.481 448.463 773.86C448.463 773.86 460.236 758.63 477.571 748.963C494.905 739.295 517.412 739.347 517.412 739.347C517.412 739.347 520.92 739.321 520.946 734.747C520.972 730.147 521.076 722.584 521.076 722.584Z" fill="#F9D377"/>
<g filter="url(#filter4_d_149_158)">
<path d="M260.667 809.698C173.085 794.937 85.1388 789.193 0.0253906 789.635V1160.73H2188V803.123C1721.4 1166.06 727.141 888.393 260.667 809.698Z" fill="white"/>
</g>
</g>
<rect width="2188" height="1161" fill="black" fill-opacity="0.7"/>
<defs>
<filter id="filter0_d_149_158" x="-14.9746" y="438.502" width="1562.67" height="725.227" filterUnits="userSpaceOnUse" color-interpolation-filters="sRGB">
<feFlood flood-opacity="0" result="BackgroundImageFix"/>
<feColorMatrix in="SourceAlpha" type="matrix" values="0 0 0 0 0 0 0 0 0 0 0 0 0 0 0 0 0 0 127 0" result="hardAlpha"/>
<feOffset dy="-12"/>
<feGaussianBlur stdDeviation="7.5"/>
<feComposite in2="hardAlpha" operator="out"/>
<feColorMatrix type="matrix" values="0 0 0 0 0.279167 0 0 0 0 0.279167 0 0 0 0 0.279167 0 0 0 0.5 0"/>
<feBlend mode="normal" in2="BackgroundImageFix" result="effect1_dropShadow_149_158"/>
<feBlend mode="normal" in="SourceGraphic" in2="effect1_dropShadow_149_158" result="shape"/>
</filter>
<filter id="filter1_d_149_158" x="-15" y="396.807" width="2217.97" height="766.948" filterUnits="userSpaceOnUse" color-interpolation-filters="sRGB">
<feFlood flood-opacity="0" result="BackgroundImageFix"/>
<feColorMatrix in="SourceAlpha" type="matrix" values="0 0 0 0 0 0 0 0 0 0 0 0 0 0 0 0 0 0 127 0" result="hardAlpha"/>
<feOffset dy="-12"/>
<feGaussianBlur stdDeviation="7.5"/>
<feComposite in2="hardAlpha" operator="out"/>
<feColorMatrix type="matrix" values="0 0 0 0 0.279167 0 0 0 0 0.279167 0 0 0 0 0.279167 0 0 0 0.5 0"/>
<feBlend mode="normal" in2="BackgroundImageFix" result="effect1_dropShadow_149_158"/>
<feBlend mode="normal" in="SourceGraphic" in2="effect1_dropShadow_149_158" result="shape"/>
</filter>
<filter id="filter2_d_149_158" x="-14.9746" y="634.217" width="2217.97" height="529.538" filterUnits="userSpaceOnUse" color-interpolation-filters="sRGB">
<feFlood flood-opacity="0" result="BackgroundImageFix"/>
<feColorMatrix in="SourceAlpha" type="matrix" values="0 0 0 0 0 0 0 0 0 0 0 0 0 0 0 0 0 0 127 0" result="hardAlpha"/>
<feOffset dy="-12"/>
<feGaussianBlur stdDeviation="7.5"/>
<feComposite in2="hardAlpha" operator="out"/>
<feColorMatrix type="matrix" values="0 0 0 0 0.279167 0 0 0 0 0.279167 0 0 0 0 0.279167 0 0 0 0.5 0"/>
<feBlend mode="normal" in2="BackgroundImageFix" result="effect1_dropShadow_149_158"/>
<feBlend mode="normal" in="SourceGraphic" in2="effect1_dropShadow_149_158" result="shape"/>
</filter>
<filter id="filter3_d_149_158" x="-14.9746" y="620.632" width="2217.97" height="543.098" filterUnits="userSpaceOnUse" color-interpolation-filters="sRGB">
<feFlood flood-opacity="0" result="BackgroundImageFix"/>
<feColorMatrix in="SourceAlpha" type="matrix" values="0 0 0 0 0 0 0 0 0 0 0 0 0 0 0 0 0 0 127 0" result="hardAlpha"/>
<feOffset dy="-12"/>
<feGaussianBlur stdDeviation="7.5"/>
<feComposite in2="hardAlpha" operator="out"/>
<feColorMatrix type="matrix" values="0 0 0 0 0.279167 0 0 0 0 0.279167 0 0 0 0 0.279167 0 0 0 0.5 0"/>
<feBlend mode="normal" in2="BackgroundImageFix" result="effect1_dropShadow_149_158"/>
<feBlend mode="normal" in="SourceGraphic" in2="effect1_dropShadow_149_158" result="shape"/>
</filter>
<filter id="filter4_d_149_158" x="-14.9746" y="762.612" width="2217.97" height="401.118" filterUnits="userSpaceOnUse" color-interpolation-filters="sRGB">
<feFlood flood-opacity="0" result="BackgroundImageFix"/>
<feColorMatrix in="SourceAlpha" type="matrix" values="0 0 0 0 0 0 0 0 0 0 0 0 0 0 0 0 0 0 127 0" result="hardAlpha"/>
<feOffset dy="-12"/>
<feGaussianBlur stdDeviation="7.5"/>
<feComposite in2="hardAlpha" operator="out"/>
<feColorMatrix type="matrix" values="0 0 0 0 0.279167 0 0 0 0 0.279167 0 0 0 0 0.279167 0 0 0 0.5 0"/>
<feBlend mode="normal" in2="BackgroundImageFix" result="effect1_dropShadow_149_158"/>
<feBlend mode="normal" in="SourceGraphic" in2="effect1_dropShadow_149_158" result="shape"/>
</filter>
</defs>
</svg>
