<?xml version="1.0" encoding="UTF-8"?>
<svg id="_Слой_2" data-name="Слой 2" xmlns="http://www.w3.org/2000/svg" viewBox="0 0 200.42 147.26">
  <defs>
    <style>
      .cls-1 {
        fill: #fff;
      }

      .cls-2 {
        fill: none;
        stroke: #1d1d1b;
        stroke-miterlimit: 10;
        stroke-width: .99px;
      }
    </style>
  </defs>
  <g id="_Слой_1-2" data-name="Слой 1">
    <g>
      <path class="cls-2" d="M98.16,54.49c0,11.21-11.9,20.84-28.87,24.97-8.48-6.69-13.48-14.92-13.48-23.81,0-9.67,5.91-18.54,15.77-25.52,15.74,4.4,26.58,13.66,26.58,24.36Z"/>
      <g>
        <path class="cls-1" d="M1.57,107.64c0,5.34,4.42,15.11,8.48,18.8,2.03,1.66,6.08,3.69,9.4,4.61,4.61,1.11,5.53,2.03,4.24,4.24-.92,1.47-4.42,2.76-7.74,2.76-4.98,0-6.27,.74-6.63,4.05-.55,3.87,.18,4.24,7.56,4.24,11.06,0,13.82-1.29,17.32-7.92,2.95-5.9,11.61-30.22,11.61-32.99,0-.74-2.4-1.47-5.34-1.47-4.79,0-5.71,.92-8.48,9.21-4.24,12.9-12.16,12.16-18.43-1.66-2.58-5.71-4.42-7.56-7.74-7.56-2.95,0-4.24,1.11-4.24,3.69Z"/>
        <path class="cls-1" d="M51.33,124.96v21.38h5.53c5.34,0,5.53-.37,5.53-8.29s.37-8.29,4.42-8.29,10.14,5.53,14.93,13.64c1.29,2.4,3.69,3.13,8.11,2.58l6.08-.55-6.45-9.77-6.63-9.77,5.34-8.48c6.82-10.69,7-13.45,.37-13.45-4.05,0-6.08,1.66-9.95,8.29-4.24,6.82-6.08,8.29-10.5,8.29-5.16,0-5.53-.55-6.08-7.92-.55-7-1.11-7.74-5.53-8.29l-5.16-.55v21.19Z"/>
        <path class="cls-1" d="M100.53,105.24c-.74,.55-1.29,10.14-1.29,21.19v19.9h5.53c5.34,0,5.53-.37,5.53-8.29v-8.29h22.11v8.29c0,7.92,.18,8.29,5.53,8.29h5.71l-.55-20.82-.55-20.64-4.98-.55c-4.61-.55-4.98,0-5.53,7.37l-.55,7.92h-20.27l-.55-7.92c-.55-6.63-1.11-7.74-4.79-7.74-2.21,0-4.79,.55-5.34,1.29Z"/>
        <path class="cls-1" d="M158.03,106.53c-10.5,6.08-11.98,26.54-2.76,35.94,4.42,4.24,6.27,4.79,17.88,4.79,12.53,0,13.27-.18,18.61-6.27,5.16-5.71,5.53-7,4.79-17.14-1.11-15.3-4.98-18.61-21.19-19.35-8.48-.37-14.01,.18-17.32,2.03Zm24.14,8.48c4.42,4.42,4.79,14.19,.74,19.9-4.24,6.08-16.22,5.71-20.27-.55-3.69-5.71-2.4-17.32,2.4-20.64,4.61-3.5,12.9-2.95,17.14,1.29Z"/>
      </g>
      <path class="cls-1" d="M174.11,25.44c2.19-6.22,8.7-15.13,26.31-25.2,0,0-29.03-3.63-49.84,17.17-7.45-1.52-15.47-2.35-23.83-2.35-22.28,0-42.17,5.88-55.17,15.07,15.74,4.4,26.58,13.66,26.58,24.36s-11.9,20.84-28.87,24.97c12.89,10.17,33.82,16.78,57.46,16.78,39.18,0,70.94-18.17,70.94-40.59,0-12-9.1-22.78-23.58-30.21Zm-48.33,5.19c3.58-3.95,6.21-4.33,10.73-.94,2.26,1.69,3.2,4.33,2.64,7.91-.38,4.52-1.51,5.84-5.84,6.21-9.6,1.13-13.93-6.21-7.53-13.18Zm7.15,53.09c-12.61,0-14.12-.38-14.12-3.58,0-1.88,1.32-3.95,2.82-4.71,1.88-.56,2.82-3.58,2.82-8.66,0-5.46-.75-7.53-2.82-7.53-1.51,0-2.82-1.51-2.82-3.58,0-3.58,7.91-7.15,16.94-7.53,4.52-.19,4.71,.19,4.14,9.22-.94,11.86,.75,18.83,4.33,18.83,1.51,0,2.82,1.69,2.82,3.77,0,3.39-1.32,3.77-14.12,3.77Z"/>
      <path class="cls-1" d="M55.81,55.65c0-9.67,5.91-18.54,15.77-25.52-6.28-1.76-13.34-2.75-20.8-2.75C24.61,27.38,3.4,39.52,3.4,54.49c0,7.49,5.31,14.27,13.9,19.18-1.69,4.11-6.18,9.78-17.3,16.14,0,0,18.36,2.29,32.15-10.39,5.72,1.4,12.01,2.18,18.63,2.18s12.82-.77,18.51-2.14c-8.48-6.69-13.48-14.92-13.48-23.81Zm-18.8,14.53c-2.37,0-4.29-1.86-4.29-4.15s1.92-4.15,4.29-4.15,4.29,1.86,4.29,4.15-1.92,4.15-4.29,4.15Zm-.07-11.32c-.82,0-4.22-1.25-4.22-11.34,0-5.26,2.26-6.73,4.22-6.73s5.05,.33,5.05,6.73c0,10.31-4.23,11.34-5.05,11.34Z"/>
    </g>
  </g>
</svg>